# xmcd
#
# Track frame offsets: 
#        150
#        14205
#        27676
#        40179
#        52383
#        63357
#        76090
#        88487
#        102226
#        115351
#        127297
#        140103
#        151574
#        163830
#        175300
#        187138
#        200164
#        215353
#        228066
#        244215
#        256933
#        268541
#        280886
#        294471
#        308253
#
# Disc length: 4270 seconds
#
# Revision: 0
# Processed by: cddbd v1.5.1PL0 Copyright (c) Steve Scherf et al.
# Submitted via: ExactAudioCopy v0.90b4
#
DISCID=7f10ac19
DTITLE=Pee Wee Crayton - Blues After Hours
DYEAR=2002
DGENRE=Blues
TTITLE0=Texas Hop
TTITLE1=Don't Ever Fall In Love
TTITLE2=Pee Wee Special
TTITLE3=Central Avenue Blues
TTITLE4=I'm Still In Love With You
TTITLE5=Bounce Pee Wee
TTITLE6=Brand New Woman
TTITLE7=Blue After Hours
TTITLE8=I Love You So
TTITLE9=Boogie Woogie Upstairs
TTITLE10=When Darkness Falls
TTITLE11=Rockin' The Blues
TTITLE12=Old Fashioned Baby
TTITLE13=Good Little Woman
TTITLE14=Please Come Back
TTITLE15=Rock Island Blues
TTITLE16=Louella Brown
TTITLE17=Change Your Way Of Lovin'
TTITLE18=Long After Hours
TTITLE19=Some Rainy Day
TTITLE20=Huckle Boogie
TTITLE21=Tried Of Travelin'
TTITLE22=Answer To Blues After Hours
TTITLE23=Dedicating The Blues
TTITLE24=Poopa Stoppa
EXTD=
EXTT0=
EXTT1=
EXTT2=
EXTT3=
EXTT4=
EXTT5=
EXTT6=
EXTT7=
EXTT8=
EXTT9=
EXTT10=
EXTT11=
EXTT12=
EXTT13=
EXTT14=
EXTT15=
EXTT16=
EXTT17=
EXTT18=
EXTT19=
EXTT20=
EXTT21=
EXTT22=
EXTT23=
EXTT24=
PLAYORDER=
